<svg xmlns="http://www.w3.org/2000/svg" xmlns:xlink="http://www.w3.org/1999/xlink" width="814.106" height="814.106" viewBox="0 0 814.106 814.106">
  <defs>
    <clipPath id="clip-path">
      <rect id="Rectangle_176" data-name="Rectangle 176" width="581.317" height="581.317"/>
    </clipPath>
  </defs>
  <g id="_4._Psychedelic_Squares" data-name="4. Psychedelic Squares" transform="matrix(0.799, -0.602, 0.602, 0.799, -0.047, 349.839)">
    <g id="Group_70" data-name="Group 70" transform="translate(0.033 0.033)" clip-path="url(#clip-path)">
      <rect id="Rectangle_3" data-name="Rectangle 3" width="581.317" height="581.317" fill="#fff"/>
      <g id="Group_69" data-name="Group 69" transform="translate(-109.149 -109.12)">
        <g id="Group_14" data-name="Group 14" transform="translate(0 0)">
          <g id="Group_4" data-name="Group 4" transform="translate(290.673 0.002)">
            <rect id="Rectangle_4" data-name="Rectangle 4" width="77.174" height="77.174" transform="translate(54.57 54.548) rotate(45)" fill="#1f2673"/>
            <g id="Group_1" data-name="Group 1" transform="translate(54.582 109.064)">
              <rect id="Rectangle_5" data-name="Rectangle 5" width="77.174" height="77.174" transform="translate(0 54.574) rotate(-45)" fill="#9fb8ff"/>
              <rect id="Rectangle_6" data-name="Rectangle 6" width="51.498" height="51.498" transform="translate(18.138 36.414) rotate(-45)" fill="#ffdee4"/>
              <rect id="Rectangle_7" data-name="Rectangle 7" width="25.773" height="25.773" transform="translate(36.319 18.237) rotate(-45)" fill="#ff606c"/>
            </g>
            <rect id="Rectangle_8" data-name="Rectangle 8" width="51.498" height="51.498" transform="translate(72.695 72.686) rotate(45)" fill="#9fb8ff"/>
            <rect id="Rectangle_9" data-name="Rectangle 9" width="25.773" height="25.773" transform="translate(90.907 90.852) rotate(45)" fill="#ffdee4"/>
            <g id="Group_2" data-name="Group 2" transform="translate(109.065 54.518)">
              <rect id="Rectangle_10" data-name="Rectangle 10" width="77.174" height="77.174" transform="translate(109.14 54.57) rotate(135)" fill="#ffdee4"/>
              <rect id="Rectangle_11" data-name="Rectangle 11" width="51.498" height="51.498" transform="translate(72.859 54.553) rotate(135)" fill="#ff606c"/>
              <rect id="Rectangle_12" data-name="Rectangle 12" width="25.773" height="25.773" transform="translate(36.477 54.577) rotate(135)" fill="#1f2673"/>
            </g>
            <g id="Group_3" data-name="Group 3" transform="translate(54.55 0)">
              <rect id="Rectangle_13" data-name="Rectangle 13" width="77.174" height="77.174" transform="translate(54.57 0) rotate(45)" fill="#ff606c"/>
              <rect id="Rectangle_14" data-name="Rectangle 14" width="51.498" height="51.498" transform="translate(54.587 36.281) rotate(45)" fill="#1f2673"/>
              <rect id="Rectangle_15" data-name="Rectangle 15" width="25.773" height="25.773" transform="translate(54.577 72.648) rotate(45)" fill="#9fb8ff"/>
            </g>
          </g>
          <g id="Group_8" data-name="Group 8" transform="translate(0 0.004)">
            <g id="Group_5" data-name="Group 5" transform="translate(54.582 109.059)">
              <rect id="Rectangle_16" data-name="Rectangle 16" width="77.174" height="77.174" transform="translate(0 54.574) rotate(-45)" fill="#9fb8ff"/>
              <rect id="Rectangle_17" data-name="Rectangle 17" width="51.498" height="51.498" transform="translate(18.138 36.414) rotate(-45)" fill="#ffdee4"/>
              <rect id="Rectangle_18" data-name="Rectangle 18" width="25.773" height="25.773" transform="translate(36.319 18.237) rotate(-45)" fill="#ff606c"/>
            </g>
            <rect id="Rectangle_19" data-name="Rectangle 19" width="77.174" height="77.174" transform="translate(54.57 54.548) rotate(45)" fill="#1f2673"/>
            <rect id="Rectangle_20" data-name="Rectangle 20" width="51.498" height="51.498" transform="translate(72.695 72.686) rotate(45)" fill="#9fb8ff"/>
            <rect id="Rectangle_21" data-name="Rectangle 21" width="25.773" height="25.773" transform="translate(90.907 90.852) rotate(45)" fill="#ffdee4"/>
            <g id="Group_6" data-name="Group 6" transform="translate(109.061 54.518)">
              <rect id="Rectangle_22" data-name="Rectangle 22" width="77.174" height="77.174" transform="translate(109.14 54.57) rotate(135)" fill="#ffdee4"/>
              <rect id="Rectangle_23" data-name="Rectangle 23" width="51.498" height="51.498" transform="translate(72.858 54.553) rotate(135)" fill="#ff606c"/>
              <rect id="Rectangle_24" data-name="Rectangle 24" width="25.773" height="25.773" transform="translate(36.477 54.577) rotate(135)" fill="#1f2673"/>
            </g>
            <g id="Group_7" data-name="Group 7" transform="translate(54.55)">
              <rect id="Rectangle_25" data-name="Rectangle 25" width="77.174" height="77.174" transform="translate(54.57) rotate(45)" fill="#ff606c"/>
              <rect id="Rectangle_26" data-name="Rectangle 26" width="51.498" height="51.498" transform="translate(54.587 36.281) rotate(45)" fill="#1f2673"/>
              <rect id="Rectangle_27" data-name="Rectangle 27" width="25.773" height="25.773" transform="translate(54.577 72.648) rotate(45)" fill="#9fb8ff"/>
            </g>
          </g>
          <g id="Group_13" data-name="Group 13" transform="translate(581.345 0)">
            <g id="Group_9" data-name="Group 9" transform="translate(54.582 109.067)">
              <rect id="Rectangle_28" data-name="Rectangle 28" width="77.174" height="77.174" transform="translate(0 54.574) rotate(-45)" fill="#9fb8ff"/>
              <rect id="Rectangle_29" data-name="Rectangle 29" width="51.498" height="51.498" transform="translate(18.138 36.414) rotate(-45)" fill="#ffdee4"/>
              <rect id="Rectangle_30" data-name="Rectangle 30" width="25.773" height="25.773" transform="translate(36.319 18.237) rotate(-45)" fill="#ff606c"/>
            </g>
            <g id="Group_10" data-name="Group 10" transform="translate(0 54.547)">
              <rect id="Rectangle_31" data-name="Rectangle 31" width="77.174" height="77.174" transform="translate(54.57 0) rotate(45)" fill="#1f2673"/>
              <rect id="Rectangle_32" data-name="Rectangle 32" width="51.498" height="51.498" transform="translate(72.695 18.139) rotate(45)" fill="#9fb8ff"/>
              <rect id="Rectangle_33" data-name="Rectangle 33" width="25.773" height="25.773" transform="translate(90.907 36.304) rotate(45)" fill="#ffdee4"/>
            </g>
            <g id="Group_11" data-name="Group 11" transform="translate(109.068 54.518)">
              <rect id="Rectangle_34" data-name="Rectangle 34" width="77.174" height="77.174" transform="translate(109.14 54.57) rotate(135)" fill="#ffdee4"/>
              <rect id="Rectangle_35" data-name="Rectangle 35" width="51.498" height="51.498" transform="translate(72.859 54.553) rotate(135)" fill="#ff606c"/>
              <rect id="Rectangle_36" data-name="Rectangle 36" width="25.773" height="25.773" transform="translate(36.477 54.577) rotate(135)" fill="#1f2673"/>
            </g>
            <g id="Group_12" data-name="Group 12" transform="translate(54.55 0)">
              <rect id="Rectangle_37" data-name="Rectangle 37" width="77.174" height="77.174" transform="translate(54.57 0) rotate(45)" fill="#ff606c"/>
              <rect id="Rectangle_38" data-name="Rectangle 38" width="51.498" height="51.498" transform="translate(54.587 36.281) rotate(45)" fill="#1f2673"/>
              <rect id="Rectangle_39" data-name="Rectangle 39" width="25.773" height="25.773" transform="translate(54.577 72.648) rotate(45)" fill="#9fb8ff"/>
            </g>
          </g>
        </g>
        <g id="Group_36" data-name="Group 36" transform="translate(109.093 109.063)">
          <g id="Group_25" data-name="Group 25" transform="translate(0.002 0)">
            <g id="Group_19" data-name="Group 19" transform="translate(0 0.002)">
              <g id="Group_15" data-name="Group 15" transform="translate(145.331 72.737)">
                <rect id="Rectangle_40" data-name="Rectangle 40" width="102.753" height="102.753" transform="translate(72.692 145.314) rotate(-135)" fill="#1f2673"/>
                <rect id="Rectangle_41" data-name="Rectangle 41" width="77.174" height="77.174" transform="translate(54.576 127.159) rotate(-135)" fill="#9fb8ff"/>
                <rect id="Rectangle_42" data-name="Rectangle 42" width="51.498" height="51.498" transform="translate(36.45 109.021) rotate(-135)" fill="#ffdee4"/>
                <rect id="Rectangle_43" data-name="Rectangle 43" width="25.773" height="25.773" transform="translate(18.224 90.841) rotate(-135)" fill="#ff606c"/>
              </g>
              <g id="Group_16" data-name="Group 16" transform="translate(72.669 145.335)">
                <rect id="Rectangle_44" data-name="Rectangle 44" width="102.753" height="102.753" transform="translate(0 72.692) rotate(-45)" fill="#ff606c"/>
                <rect id="Rectangle_45" data-name="Rectangle 45" width="77.174" height="77.174" transform="translate(18.155 54.574) rotate(-45)" fill="#1f2673"/>
                <rect id="Rectangle_46" data-name="Rectangle 46" width="51.498" height="51.498" transform="translate(36.293 36.414) rotate(-45)" fill="#9fb8ff"/>
                <rect id="Rectangle_47" data-name="Rectangle 47" width="25.773" height="25.773" transform="translate(54.473 18.237) rotate(-45)" fill="#ffdee4"/>
              </g>
              <g id="Group_17" data-name="Group 17" transform="translate(72.706 0)">
                <rect id="Rectangle_48" data-name="Rectangle 48" width="102.753" height="102.753" transform="translate(72.657 0) rotate(45)" fill="#9fb8ff"/>
                <rect id="Rectangle_49" data-name="Rectangle 49" width="77.174" height="77.174" transform="translate(72.656 36.274) rotate(45)" fill="#ffdee4"/>
                <rect id="Rectangle_50" data-name="Rectangle 50" width="51.498" height="51.498" transform="translate(72.673 72.555) rotate(45)" fill="#ff606c"/>
                <rect id="Rectangle_51" data-name="Rectangle 51" width="25.773" height="25.773" transform="translate(72.663 108.922) rotate(45)" fill="#1f2673"/>
              </g>
              <g id="Group_18" data-name="Group 18" transform="translate(0 72.706)">
                <rect id="Rectangle_52" data-name="Rectangle 52" width="102.753" height="102.753" transform="translate(0 72.657) rotate(-45)" fill="#ffdee4"/>
                <rect id="Rectangle_53" data-name="Rectangle 53" width="77.174" height="77.174" transform="translate(36.274 72.656) rotate(-45)" fill="#ff606c"/>
                <rect id="Rectangle_54" data-name="Rectangle 54" width="51.498" height="51.498" transform="translate(72.555 72.673) rotate(-45)" fill="#1f2673"/>
                <rect id="Rectangle_55" data-name="Rectangle 55" width="25.773" height="25.773" transform="translate(108.922 72.663) rotate(-45)" fill="#9fb8ff"/>
              </g>
            </g>
            <g id="Group_24" data-name="Group 24" transform="translate(290.673 0)">
              <g id="Group_20" data-name="Group 20" transform="translate(145.335 72.741)">
                <rect id="Rectangle_56" data-name="Rectangle 56" width="102.753" height="102.753" transform="translate(72.692 145.314) rotate(-135)" fill="#1f2673"/>
                <rect id="Rectangle_57" data-name="Rectangle 57" width="77.174" height="77.174" transform="translate(54.576 127.159) rotate(-135)" fill="#9fb8ff"/>
                <rect id="Rectangle_58" data-name="Rectangle 58" width="51.498" height="51.498" transform="translate(36.45 109.021) rotate(-135)" fill="#ffdee4"/>
                <rect id="Rectangle_59" data-name="Rectangle 59" width="25.773" height="25.773" transform="translate(18.224 90.841) rotate(-135)" fill="#ff606c"/>
              </g>
              <g id="Group_21" data-name="Group 21" transform="translate(72.669 145.339)">
                <rect id="Rectangle_60" data-name="Rectangle 60" width="102.753" height="102.753" transform="translate(0 72.692) rotate(-45)" fill="#ff606c"/>
                <rect id="Rectangle_61" data-name="Rectangle 61" width="77.174" height="77.174" transform="translate(18.155 54.574) rotate(-45)" fill="#1f2673"/>
                <rect id="Rectangle_62" data-name="Rectangle 62" width="51.498" height="51.498" transform="translate(36.293 36.414) rotate(-45)" fill="#9fb8ff"/>
                <rect id="Rectangle_63" data-name="Rectangle 63" width="25.773" height="25.773" transform="translate(54.473 18.237) rotate(-45)" fill="#ffdee4"/>
              </g>
              <g id="Group_22" data-name="Group 22" transform="translate(72.706)">
                <rect id="Rectangle_64" data-name="Rectangle 64" width="102.753" height="102.753" transform="translate(72.657 0) rotate(45)" fill="#9fb8ff"/>
                <rect id="Rectangle_65" data-name="Rectangle 65" width="77.174" height="77.174" transform="translate(72.656 36.274) rotate(45)" fill="#ffdee4"/>
                <rect id="Rectangle_66" data-name="Rectangle 66" width="51.498" height="51.498" transform="translate(72.673 72.555) rotate(45)" fill="#ff606c"/>
                <rect id="Rectangle_67" data-name="Rectangle 67" width="25.773" height="25.773" transform="translate(72.663 108.922) rotate(45)" fill="#1f2673"/>
              </g>
              <g id="Group_23" data-name="Group 23" transform="translate(0 72.71)">
                <rect id="Rectangle_68" data-name="Rectangle 68" width="102.753" height="102.753" transform="translate(0 72.657) rotate(-45)" fill="#ffdee4"/>
                <rect id="Rectangle_69" data-name="Rectangle 69" width="77.174" height="77.174" transform="translate(36.274 72.656) rotate(-45)" fill="#ff606c"/>
                <rect id="Rectangle_70" data-name="Rectangle 70" width="51.498" height="51.498" transform="translate(72.555 72.673) rotate(-45)" fill="#1f2673"/>
                <rect id="Rectangle_71" data-name="Rectangle 71" width="25.773" height="25.773" transform="translate(108.922 72.663) rotate(-45)" fill="#9fb8ff"/>
              </g>
            </g>
          </g>
          <g id="Group_30" data-name="Group 30" transform="translate(0 290.675)">
            <g id="Group_26" data-name="Group 26" transform="translate(145.331 72.741)">
              <rect id="Rectangle_72" data-name="Rectangle 72" width="102.753" height="102.753" transform="translate(72.692 145.314) rotate(-135)" fill="#1f2673"/>
              <rect id="Rectangle_73" data-name="Rectangle 73" width="77.174" height="77.174" transform="translate(54.576 127.159) rotate(-135)" fill="#9fb8ff"/>
              <rect id="Rectangle_74" data-name="Rectangle 74" width="51.498" height="51.498" transform="translate(36.45 109.021) rotate(-135)" fill="#ffdee4"/>
              <rect id="Rectangle_75" data-name="Rectangle 75" width="25.773" height="25.773" transform="translate(18.224 90.841) rotate(-135)" fill="#ff606c"/>
            </g>
            <g id="Group_27" data-name="Group 27" transform="translate(72.669 145.335)">
              <rect id="Rectangle_76" data-name="Rectangle 76" width="102.753" height="102.753" transform="translate(0 72.692) rotate(-45)" fill="#ff606c"/>
              <rect id="Rectangle_77" data-name="Rectangle 77" width="77.174" height="77.174" transform="translate(18.155 54.574) rotate(-45)" fill="#1f2673"/>
              <rect id="Rectangle_78" data-name="Rectangle 78" width="51.498" height="51.498" transform="translate(36.293 36.414) rotate(-45)" fill="#9fb8ff"/>
              <rect id="Rectangle_79" data-name="Rectangle 79" width="25.773" height="25.773" transform="translate(54.473 18.237) rotate(-45)" fill="#ffdee4"/>
            </g>
            <g id="Group_28" data-name="Group 28" transform="translate(72.71)">
              <rect id="Rectangle_80" data-name="Rectangle 80" width="102.753" height="102.753" transform="translate(72.657) rotate(45)" fill="#9fb8ff"/>
              <rect id="Rectangle_81" data-name="Rectangle 81" width="77.174" height="77.174" transform="translate(72.656 36.274) rotate(45)" fill="#ffdee4"/>
              <rect id="Rectangle_82" data-name="Rectangle 82" width="51.498" height="51.498" transform="translate(72.673 72.555) rotate(45)" fill="#ff606c"/>
              <rect id="Rectangle_83" data-name="Rectangle 83" width="25.773" height="25.773" transform="translate(72.663 108.922) rotate(45)" fill="#1f2673"/>
            </g>
            <g id="Group_29" data-name="Group 29" transform="translate(0 72.706)">
              <rect id="Rectangle_84" data-name="Rectangle 84" width="102.753" height="102.753" transform="translate(0 72.657) rotate(-45)" fill="#ffdee4"/>
              <rect id="Rectangle_85" data-name="Rectangle 85" width="77.174" height="77.174" transform="translate(36.274 72.656) rotate(-45)" fill="#ff606c"/>
              <rect id="Rectangle_86" data-name="Rectangle 86" width="51.498" height="51.498" transform="translate(72.555 72.673) rotate(-45)" fill="#1f2673"/>
              <rect id="Rectangle_87" data-name="Rectangle 87" width="25.773" height="25.773" transform="translate(108.922 72.663) rotate(-45)" fill="#9fb8ff"/>
            </g>
          </g>
          <g id="Group_35" data-name="Group 35" transform="translate(290.673 290.673)">
            <g id="Group_31" data-name="Group 31" transform="translate(145.335 72.745)">
              <rect id="Rectangle_88" data-name="Rectangle 88" width="102.753" height="102.753" transform="translate(72.692 145.314) rotate(-135)" fill="#1f2673"/>
              <rect id="Rectangle_89" data-name="Rectangle 89" width="77.174" height="77.174" transform="translate(54.576 127.159) rotate(-135)" fill="#9fb8ff"/>
              <rect id="Rectangle_90" data-name="Rectangle 90" width="51.498" height="51.498" transform="translate(36.45 109.021) rotate(-135)" fill="#ffdee4"/>
              <rect id="Rectangle_91" data-name="Rectangle 91" width="25.773" height="25.773" transform="translate(18.224 90.841) rotate(-135)" fill="#ff606c"/>
            </g>
            <g id="Group_32" data-name="Group 32" transform="translate(72.669 145.339)">
              <rect id="Rectangle_92" data-name="Rectangle 92" width="102.753" height="102.753" transform="translate(0 72.692) rotate(-45)" fill="#ff606c"/>
              <rect id="Rectangle_93" data-name="Rectangle 93" width="77.174" height="77.174" transform="translate(18.155 54.574) rotate(-45)" fill="#1f2673"/>
              <rect id="Rectangle_94" data-name="Rectangle 94" width="51.498" height="51.498" transform="translate(36.293 36.414) rotate(-45)" fill="#9fb8ff"/>
              <rect id="Rectangle_95" data-name="Rectangle 95" width="25.773" height="25.773" transform="translate(54.473 18.237) rotate(-45)" fill="#ffdee4"/>
            </g>
            <g id="Group_33" data-name="Group 33" transform="translate(72.709)">
              <rect id="Rectangle_96" data-name="Rectangle 96" width="102.753" height="102.753" transform="translate(72.657) rotate(45)" fill="#9fb8ff"/>
              <rect id="Rectangle_97" data-name="Rectangle 97" width="77.174" height="77.174" transform="translate(72.656 36.274) rotate(45)" fill="#ffdee4"/>
              <rect id="Rectangle_98" data-name="Rectangle 98" width="51.498" height="51.498" transform="translate(72.673 72.555) rotate(45)" fill="#ff606c"/>
              <rect id="Rectangle_99" data-name="Rectangle 99" width="25.773" height="25.773" transform="translate(72.663 108.922) rotate(45)" fill="#1f2673"/>
            </g>
            <g id="Group_34" data-name="Group 34" transform="translate(0 72.709)">
              <rect id="Rectangle_100" data-name="Rectangle 100" width="102.753" height="102.753" transform="translate(0 72.657) rotate(-45)" fill="#ffdee4"/>
              <rect id="Rectangle_101" data-name="Rectangle 101" width="77.174" height="77.174" transform="translate(36.274 72.656) rotate(-45)" fill="#ff606c"/>
              <rect id="Rectangle_102" data-name="Rectangle 102" width="51.498" height="51.498" transform="translate(72.555 72.673) rotate(-45)" fill="#1f2673"/>
              <rect id="Rectangle_103" data-name="Rectangle 103" width="25.773" height="25.773" transform="translate(108.922 72.663) rotate(-45)" fill="#9fb8ff"/>
            </g>
          </g>
        </g>
        <g id="Group_52" data-name="Group 52" transform="translate(0.001 290.672)">
          <g id="Group_41" data-name="Group 41" transform="translate(290.673 0.002)">
            <g id="Group_37" data-name="Group 37" transform="translate(54.58 109.064)">
              <rect id="Rectangle_104" data-name="Rectangle 104" width="77.174" height="77.174" transform="translate(0 54.574) rotate(-45)" fill="#9fb8ff"/>
              <rect id="Rectangle_105" data-name="Rectangle 105" width="51.498" height="51.498" transform="translate(18.138 36.414) rotate(-45)" fill="#ffdee4"/>
              <rect id="Rectangle_106" data-name="Rectangle 106" width="25.773" height="25.773" transform="translate(36.319 18.237) rotate(-45)" fill="#ff606c"/>
            </g>
            <g id="Group_38" data-name="Group 38" transform="translate(0 54.548)">
              <rect id="Rectangle_107" data-name="Rectangle 107" width="77.174" height="77.174" transform="translate(54.57) rotate(45)" fill="#1f2673"/>
              <rect id="Rectangle_108" data-name="Rectangle 108" width="51.498" height="51.498" transform="translate(72.695 18.139) rotate(45)" fill="#9fb8ff"/>
              <rect id="Rectangle_109" data-name="Rectangle 109" width="25.773" height="25.773" transform="translate(90.907 36.304) rotate(45)" fill="#ffdee4"/>
            </g>
            <g id="Group_39" data-name="Group 39" transform="translate(109.065 54.52)">
              <rect id="Rectangle_110" data-name="Rectangle 110" width="77.174" height="77.174" transform="translate(109.14 54.57) rotate(135)" fill="#ffdee4"/>
              <rect id="Rectangle_111" data-name="Rectangle 111" width="51.498" height="51.498" transform="translate(72.859 54.553) rotate(135)" fill="#ff606c"/>
              <rect id="Rectangle_112" data-name="Rectangle 112" width="25.773" height="25.773" transform="translate(36.477 54.577) rotate(135)" fill="#1f2673"/>
            </g>
            <g id="Group_40" data-name="Group 40" transform="translate(54.55)">
              <rect id="Rectangle_113" data-name="Rectangle 113" width="77.174" height="77.174" transform="translate(54.57) rotate(45)" fill="#ff606c"/>
              <rect id="Rectangle_114" data-name="Rectangle 114" width="51.498" height="51.498" transform="translate(54.587 36.281) rotate(45)" fill="#1f2673"/>
              <rect id="Rectangle_115" data-name="Rectangle 115" width="25.773" height="25.773" transform="translate(54.577 72.648) rotate(45)" fill="#9fb8ff"/>
            </g>
          </g>
          <g id="Group_46" data-name="Group 46" transform="translate(0 0.004)">
            <g id="Group_42" data-name="Group 42" transform="translate(54.58 109.059)">
              <rect id="Rectangle_116" data-name="Rectangle 116" width="77.174" height="77.174" transform="translate(0 54.574) rotate(-45)" fill="#9fb8ff"/>
              <rect id="Rectangle_117" data-name="Rectangle 117" width="51.498" height="51.498" transform="translate(18.138 36.414) rotate(-45)" fill="#ffdee4"/>
              <rect id="Rectangle_118" data-name="Rectangle 118" width="25.773" height="25.773" transform="translate(36.319 18.237) rotate(-45)" fill="#ff606c"/>
            </g>
            <g id="Group_43" data-name="Group 43" transform="translate(0 54.548)">
              <rect id="Rectangle_119" data-name="Rectangle 119" width="77.174" height="77.174" transform="translate(54.57 0) rotate(45)" fill="#1f2673"/>
              <rect id="Rectangle_120" data-name="Rectangle 120" width="51.498" height="51.498" transform="translate(72.695 18.139) rotate(45)" fill="#9fb8ff"/>
              <rect id="Rectangle_121" data-name="Rectangle 121" width="25.773" height="25.773" transform="translate(90.907 36.304) rotate(45)" fill="#ffdee4"/>
            </g>
            <g id="Group_44" data-name="Group 44" transform="translate(109.061 54.52)">
              <rect id="Rectangle_122" data-name="Rectangle 122" width="77.174" height="77.174" transform="translate(109.14 54.57) rotate(135)" fill="#ffdee4"/>
              <rect id="Rectangle_123" data-name="Rectangle 123" width="51.498" height="51.498" transform="translate(72.858 54.553) rotate(135)" fill="#ff606c"/>
              <rect id="Rectangle_124" data-name="Rectangle 124" width="25.773" height="25.773" transform="translate(36.477 54.577) rotate(135)" fill="#1f2673"/>
            </g>
            <g id="Group_45" data-name="Group 45" transform="translate(54.55)">
              <rect id="Rectangle_125" data-name="Rectangle 125" width="77.174" height="77.174" transform="translate(54.57) rotate(45)" fill="#ff606c"/>
              <rect id="Rectangle_126" data-name="Rectangle 126" width="51.498" height="51.498" transform="translate(54.587 36.281) rotate(45)" fill="#1f2673"/>
              <rect id="Rectangle_127" data-name="Rectangle 127" width="25.773" height="25.773" transform="translate(54.577 72.648) rotate(45)" fill="#9fb8ff"/>
            </g>
          </g>
          <g id="Group_51" data-name="Group 51" transform="translate(581.345 0)">
            <g id="Group_47" data-name="Group 47" transform="translate(54.58 109.067)">
              <rect id="Rectangle_128" data-name="Rectangle 128" width="77.174" height="77.174" transform="translate(0 54.574) rotate(-45)" fill="#9fb8ff"/>
              <rect id="Rectangle_129" data-name="Rectangle 129" width="51.498" height="51.498" transform="translate(18.138 36.414) rotate(-45)" fill="#ffdee4"/>
              <rect id="Rectangle_130" data-name="Rectangle 130" width="25.773" height="25.773" transform="translate(36.319 18.237) rotate(-45)" fill="#ff606c"/>
            </g>
            <g id="Group_48" data-name="Group 48" transform="translate(0 54.548)">
              <rect id="Rectangle_131" data-name="Rectangle 131" width="77.174" height="77.174" transform="translate(54.57 0) rotate(45)" fill="#1f2673"/>
              <rect id="Rectangle_132" data-name="Rectangle 132" width="51.498" height="51.498" transform="translate(72.695 18.139) rotate(45)" fill="#9fb8ff"/>
              <rect id="Rectangle_133" data-name="Rectangle 133" width="25.773" height="25.773" transform="translate(90.907 36.304) rotate(45)" fill="#ffdee4"/>
            </g>
            <g id="Group_49" data-name="Group 49" transform="translate(109.069 54.52)">
              <rect id="Rectangle_134" data-name="Rectangle 134" width="77.174" height="77.174" transform="translate(109.14 54.57) rotate(135)" fill="#ffdee4"/>
              <rect id="Rectangle_135" data-name="Rectangle 135" width="51.498" height="51.498" transform="translate(72.858 54.553) rotate(135)" fill="#ff606c"/>
              <rect id="Rectangle_136" data-name="Rectangle 136" width="25.773" height="25.773" transform="translate(36.477 54.577) rotate(135)" fill="#1f2673"/>
            </g>
            <g id="Group_50" data-name="Group 50" transform="translate(54.55 0)">
              <rect id="Rectangle_137" data-name="Rectangle 137" width="77.174" height="77.174" transform="translate(54.57 0) rotate(45)" fill="#ff606c"/>
              <rect id="Rectangle_138" data-name="Rectangle 138" width="51.498" height="51.498" transform="translate(54.587 36.281) rotate(45)" fill="#1f2673"/>
              <rect id="Rectangle_139" data-name="Rectangle 139" width="25.773" height="25.773" transform="translate(54.577 72.648) rotate(45)" fill="#9fb8ff"/>
            </g>
          </g>
        </g>
        <g id="Group_68" data-name="Group 68" transform="translate(0.005 581.345)">
          <g id="Group_57" data-name="Group 57" transform="translate(290.673 0.002)">
            <g id="Group_53" data-name="Group 53" transform="translate(54.573 109.064)">
              <rect id="Rectangle_140" data-name="Rectangle 140" width="77.174" height="77.174" transform="translate(0 54.574) rotate(-45)" fill="#9fb8ff"/>
              <rect id="Rectangle_141" data-name="Rectangle 141" width="51.498" height="51.498" transform="translate(18.138 36.414) rotate(-45)" fill="#ffdee4"/>
              <rect id="Rectangle_142" data-name="Rectangle 142" width="25.773" height="25.773" transform="translate(36.319 18.237) rotate(-45)" fill="#ff606c"/>
            </g>
            <g id="Group_54" data-name="Group 54" transform="translate(0 54.547)">
              <rect id="Rectangle_143" data-name="Rectangle 143" width="77.174" height="77.174" transform="translate(54.57) rotate(45)" fill="#1f2673"/>
              <rect id="Rectangle_144" data-name="Rectangle 144" width="51.498" height="51.498" transform="translate(72.695 18.139) rotate(45)" fill="#9fb8ff"/>
              <rect id="Rectangle_145" data-name="Rectangle 145" width="25.773" height="25.773" transform="translate(90.907 36.304) rotate(45)" fill="#ffdee4"/>
            </g>
            <g id="Group_55" data-name="Group 55" transform="translate(109.065 54.528)">
              <rect id="Rectangle_146" data-name="Rectangle 146" width="77.174" height="77.174" transform="translate(109.14 54.57) rotate(135)" fill="#ffdee4"/>
              <rect id="Rectangle_147" data-name="Rectangle 147" width="51.498" height="51.498" transform="translate(72.859 54.553) rotate(135)" fill="#ff606c"/>
              <rect id="Rectangle_148" data-name="Rectangle 148" width="25.773" height="25.773" transform="translate(36.477 54.577) rotate(135)" fill="#1f2673"/>
            </g>
            <g id="Group_56" data-name="Group 56" transform="translate(54.55 0)">
              <rect id="Rectangle_149" data-name="Rectangle 149" width="77.174" height="77.174" transform="translate(54.57 0) rotate(45)" fill="#ff606c"/>
              <rect id="Rectangle_150" data-name="Rectangle 150" width="51.498" height="51.498" transform="translate(54.587 36.281) rotate(45)" fill="#1f2673"/>
              <rect id="Rectangle_151" data-name="Rectangle 151" width="25.773" height="25.773" transform="translate(54.577 72.648) rotate(45)" fill="#9fb8ff"/>
            </g>
          </g>
          <g id="Group_62" data-name="Group 62" transform="translate(0 0.004)">
            <g id="Group_58" data-name="Group 58" transform="translate(54.573 109.059)">
              <rect id="Rectangle_152" data-name="Rectangle 152" width="77.174" height="77.174" transform="translate(0 54.574) rotate(-45)" fill="#9fb8ff"/>
              <rect id="Rectangle_153" data-name="Rectangle 153" width="51.498" height="51.498" transform="translate(18.138 36.414) rotate(-45)" fill="#ffdee4"/>
              <rect id="Rectangle_154" data-name="Rectangle 154" width="25.773" height="25.773" transform="translate(36.319 18.237) rotate(-45)" fill="#ff606c"/>
            </g>
            <g id="Group_59" data-name="Group 59" transform="translate(0 54.548)">
              <rect id="Rectangle_155" data-name="Rectangle 155" width="77.174" height="77.174" transform="translate(54.57 0) rotate(45)" fill="#1f2673"/>
              <rect id="Rectangle_156" data-name="Rectangle 156" width="51.498" height="51.498" transform="translate(72.695 18.139) rotate(45)" fill="#9fb8ff"/>
              <rect id="Rectangle_157" data-name="Rectangle 157" width="25.773" height="25.773" transform="translate(90.907 36.304) rotate(45)" fill="#ffdee4"/>
            </g>
            <g id="Group_60" data-name="Group 60" transform="translate(109.061 54.528)">
              <rect id="Rectangle_158" data-name="Rectangle 158" width="77.174" height="77.174" transform="translate(109.14 54.57) rotate(135)" fill="#ffdee4"/>
              <rect id="Rectangle_159" data-name="Rectangle 159" width="51.498" height="51.498" transform="translate(72.859 54.553) rotate(135)" fill="#ff606c"/>
              <rect id="Rectangle_160" data-name="Rectangle 160" width="25.773" height="25.773" transform="translate(36.477 54.577) rotate(135)" fill="#1f2673"/>
            </g>
            <g id="Group_61" data-name="Group 61" transform="translate(54.55 0)">
              <rect id="Rectangle_161" data-name="Rectangle 161" width="77.174" height="77.174" transform="translate(54.57 0) rotate(45)" fill="#ff606c"/>
              <rect id="Rectangle_162" data-name="Rectangle 162" width="51.498" height="51.498" transform="translate(54.587 36.281) rotate(45)" fill="#1f2673"/>
              <rect id="Rectangle_163" data-name="Rectangle 163" width="25.773" height="25.773" transform="translate(54.577 72.648) rotate(45)" fill="#9fb8ff"/>
            </g>
          </g>
          <g id="Group_67" data-name="Group 67" transform="translate(581.345 0)">
            <g id="Group_63" data-name="Group 63" transform="translate(54.573 109.067)">
              <rect id="Rectangle_164" data-name="Rectangle 164" width="77.174" height="77.174" transform="translate(0 54.574) rotate(-45)" fill="#9fb8ff"/>
              <rect id="Rectangle_165" data-name="Rectangle 165" width="51.498" height="51.498" transform="translate(18.138 36.414) rotate(-45)" fill="#ffdee4"/>
              <rect id="Rectangle_166" data-name="Rectangle 166" width="25.773" height="25.773" transform="translate(36.319 18.237) rotate(-45)" fill="#ff606c"/>
            </g>
            <g id="Group_64" data-name="Group 64" transform="translate(0 54.548)">
              <rect id="Rectangle_167" data-name="Rectangle 167" width="77.174" height="77.174" transform="translate(54.57) rotate(45)" fill="#1f2673"/>
              <rect id="Rectangle_168" data-name="Rectangle 168" width="51.498" height="51.498" transform="translate(72.695 18.139) rotate(45)" fill="#9fb8ff"/>
              <rect id="Rectangle_169" data-name="Rectangle 169" width="25.773" height="25.773" transform="translate(90.907 36.304) rotate(45)" fill="#ffdee4"/>
            </g>
            <g id="Group_65" data-name="Group 65" transform="translate(109.068 54.527)">
              <rect id="Rectangle_170" data-name="Rectangle 170" width="77.174" height="77.174" transform="translate(109.14 54.57) rotate(135)" fill="#ffdee4"/>
              <rect id="Rectangle_171" data-name="Rectangle 171" width="51.498" height="51.498" transform="translate(72.859 54.553) rotate(135)" fill="#ff606c"/>
              <rect id="Rectangle_172" data-name="Rectangle 172" width="25.773" height="25.773" transform="translate(36.477 54.577) rotate(135)" fill="#1f2673"/>
            </g>
            <g id="Group_66" data-name="Group 66" transform="translate(54.55 0)">
              <rect id="Rectangle_173" data-name="Rectangle 173" width="77.174" height="77.174" transform="translate(54.57 0) rotate(45)" fill="#ff606c"/>
              <rect id="Rectangle_174" data-name="Rectangle 174" width="51.498" height="51.498" transform="translate(54.587 36.281) rotate(45)" fill="#1f2673"/>
              <rect id="Rectangle_175" data-name="Rectangle 175" width="25.773" height="25.773" transform="translate(54.577 72.648) rotate(45)" fill="#9fb8ff"/>
            </g>
          </g>
        </g>
      </g>
    </g>
  </g>
</svg>
